<svg width="20" height="24" viewBox="0 0 20 24" fill="none" xmlns="http://www.w3.org/2000/svg">
<path d="M7.56195 17.7217H5.70312V16.8984H8.76754V17.7217L6.90871 20.4495V20.4616H8.76754V21.2849H5.70312V20.4616L7.56195 17.7338V17.7217Z" fill="black"/>
<path d="M10.8437 16.8984V21.284H9.71729V16.8984H10.8437Z" fill="black"/>
<path d="M12.8671 21.2819H11.8555V16.9257C12.273 16.8653 12.7157 16.8359 13.188 16.8359C14.478 16.8359 15.126 17.3106 15.126 18.2659C15.126 19.2997 14.5145 19.8399 13.3516 19.8399C13.2063 19.8399 13.0428 19.8339 12.8671 19.8158V21.2819ZM12.8671 19.0589C12.9941 19.0771 13.1211 19.0891 13.2489 19.0891C13.83 19.0891 14.1631 18.807 14.1631 18.3263C14.1631 17.8456 13.8604 17.6109 13.2489 17.6109C13.1159 17.6109 12.9889 17.623 12.8671 17.6471V19.0589Z" fill="black"/>
<path d="M11.3632 9.14062H10.5108C10.3912 9.14062 10.2942 9.23683 10.2942 9.3555V10.2012C10.2942 10.3199 10.3912 10.4161 10.5108 10.4161H11.3632C11.4828 10.4161 11.5798 10.3199 11.5798 10.2012V9.3555C11.5798 9.23683 11.4828 9.14062 11.3632 9.14062Z" fill="black"/>
<path d="M10.0778 2.76562H9.22538C9.10576 2.76562 9.00879 2.86183 9.00879 2.9805V3.82621C9.00879 3.94489 9.10576 4.04109 9.22538 4.04109H10.0778C10.1974 4.04109 10.2944 3.94489 10.2944 3.82621V2.9805C10.2944 2.86183 10.1974 2.76562 10.0778 2.76562Z" fill="black"/>
<path d="M11.3632 4.03906H10.5108C10.3912 4.03906 10.2942 4.13527 10.2942 4.25394V5.09965C10.2942 5.21832 10.3912 5.31453 10.5108 5.31453H11.3632C11.4828 5.31453 11.5798 5.21832 11.5798 5.09965V4.25394C11.5798 4.13527 11.4828 4.03906 11.3632 4.03906Z" fill="black"/>
<path d="M10.0778 5.32031H9.22538C9.10576 5.32031 9.00879 5.41652 9.00879 5.53519V6.3809C9.00879 6.49957 9.10576 6.59578 9.22538 6.59578H10.0778C10.1974 6.59578 10.2944 6.49957 10.2944 6.3809V5.53519C10.2944 5.41652 10.1974 5.32031 10.0778 5.32031Z" fill="black"/>
<path d="M10.0778 0.195312H9.22538C9.10576 0.195312 9.00879 0.291517 9.00879 0.410192V1.2559C9.00879 1.37457 9.10576 1.47078 9.22538 1.47078H10.0778C10.1974 1.47078 10.2944 1.37457 10.2944 1.2559V0.410192C10.2944 0.291517 10.1974 0.195312 10.0778 0.195312Z" fill="black"/>
<path d="M11.3632 1.46875H10.5108C10.3912 1.46875 10.2942 1.56495 10.2942 1.68363V2.52934C10.2942 2.64801 10.3912 2.74422 10.5108 2.74422H11.3632C11.4828 2.74422 11.5798 2.64801 11.5798 2.52934V1.68363C11.5798 1.56495 11.4828 1.46875 11.3632 1.46875Z" fill="black"/>
<path d="M11.3632 6.59375H10.5108C10.3912 6.59375 10.2942 6.68995 10.2942 6.80863V7.65434C10.2942 7.77301 10.3912 7.86922 10.5108 7.86922H11.3632C11.4828 7.86922 11.5798 7.77301 11.5798 7.65434V6.80863C11.5798 6.68995 11.4828 6.59375 11.3632 6.59375Z" fill="black"/>
<path d="M10.0778 7.86719H9.22538C9.10576 7.86719 9.00879 7.96339 9.00879 8.08207V8.92778C9.00879 9.04645 9.10576 9.14265 9.22538 9.14265H10.0778C10.1974 9.14265 10.2944 9.04645 10.2944 8.92778V8.08207C10.2944 7.96339 10.1974 7.86719 10.0778 7.86719Z" fill="black"/>
<path d="M11.3416 11.4963H10.2926C10.2926 11.492 10.2943 11.4876 10.2943 11.4833V10.6368C10.2943 10.5185 10.1977 10.4219 10.0777 10.4219H9.2244C9.10523 10.4219 9.00781 10.5177 9.00781 10.6368V11.4833C9.00781 11.4876 9.00868 11.492 9.00955 11.4963H9.00781V14.6858C9.00781 14.9378 9.21396 15.1423 9.46795 15.1423H11.1189C11.3729 15.1423 11.579 14.9378 11.579 14.6858V11.7319C11.579 11.6016 11.472 11.4954 11.3407 11.4954L11.3416 11.4963ZM10.9371 13.4328C10.9371 13.576 10.8197 13.6925 10.6753 13.6925H9.91244C9.76804 13.6925 9.65062 13.576 9.65062 13.4328V12.3023C9.65062 12.1806 9.74978 12.0822 9.87242 12.0822H10.7153C10.8379 12.0822 10.9371 12.1806 10.9371 12.3023V13.4328Z" fill="black"/>
<path d="M14.0156 0H2.79737C1.25256 0 0 1.24267 0 2.77531V21.2247C0 22.7573 1.25256 24 2.79737 24H17.2035C18.7483 24 20.0009 22.7573 20.0009 21.2247V6.12017C20.0009 5.79914 19.8756 5.4902 19.6512 5.25893L14.9176 0.380569C14.6819 0.137212 14.3565 0 14.0164 0H14.0156ZM14.5131 1.2513L18.5952 5.45914H14.5131V1.2513ZM17.2026 23.1077H2.79737C1.75097 23.1077 0.900274 22.2628 0.900274 21.2256V2.77531C0.900274 1.73715 1.75184 0.893172 2.79737 0.893172H13.578V5.92341C13.578 6.17971 13.7877 6.38769 14.046 6.38769H19.1015V21.2256C19.1015 22.2637 18.2499 23.1077 17.2044 23.1077H17.2026Z" fill="#231815"/>
</svg>
