<svg width="29" height="24" viewBox="0 0 29 24" fill="none" xmlns="http://www.w3.org/2000/svg">
<g clip-path="url(#clip0_417_6202)">
<path d="M21.0152 10.1791C20.5638 9.73673 19.8327 9.73673 19.3813 10.1791L15.6569 13.8285V1.13352C15.6569 0.507697 15.1388 0 14.5001 0C13.8614 0 13.3458 0.507697 13.3458 1.13352V13.831L9.62142 10.1816C9.16998 9.73924 8.43895 9.73924 7.98751 10.1816C7.53607 10.6239 7.53607 11.3402 7.98751 11.7826L13.6844 17.3647C14.0794 17.7518 14.6899 17.7996 15.1362 17.5105C15.2003 17.4703 15.2619 17.42 15.3183 17.3647L21.0152 11.7826C21.4666 11.3402 21.4666 10.6239 21.0152 10.1816V10.1791Z" fill="#222222"/>
<path d="M28.9974 16.9801C28.9795 16.3166 28.4254 15.7812 27.7431 15.7812C27.0609 15.7812 26.5068 16.3141 26.4889 16.9801V17.0078C26.4889 17.0078 26.4889 17.0103 26.4889 17.0128V19.6091C26.4889 20.7853 25.5167 21.7379 24.3163 21.7379H4.68371C3.48328 21.7379 2.51114 20.7853 2.51114 19.6091V16.9801C2.49319 16.3166 1.93915 15.7812 1.25685 15.7812C0.574562 15.7812 0.0205201 16.3141 0 16.9801V19.9584C0 22.1903 1.94428 24.0024 4.34513 24.0024H24.6549C27.0557 24.0024 29 22.1928 29 19.9584V16.9801H28.9974Z" fill="#222222"/>
</g>
<defs>
<clipPath id="clip0_417_6202">
<rect width="29" height="24" fill="white"/>
</clipPath>
</defs>
</svg>
